<svg width="178" height="178" viewBox="0 0 178 178" fill="none" xmlns="http://www.w3.org/2000/svg">
<path d="M44.5 0H105.688V11.125H44.5C41.5494 11.125 38.7198 12.2971 36.6334 14.3834C34.5471 16.4698 33.375 19.2994 33.375 22.25V155.75C33.375 158.7 34.5471 161.53 36.6334 163.617C38.7198 165.703 41.5494 166.875 44.5 166.875H133.5C136.45 166.875 139.28 165.703 141.367 163.617C143.453 161.53 144.625 158.7 144.625 155.75V50.0625H155.75V155.75C155.75 161.651 153.406 167.31 149.233 171.483C145.06 175.656 139.401 178 133.5 178H44.5C38.599 178 32.9395 175.656 28.7669 171.483C24.5942 167.31 22.25 161.651 22.25 155.75V22.25C22.25 16.349 24.5942 10.6895 28.7669 6.51687C32.9395 2.34419 38.599 0 44.5 0Z" fill="black"/>
<path d="M105.688 33.375V0L155.75 50.0625H122.375C117.949 50.0625 113.704 48.3043 110.575 45.1749C107.446 42.0453 105.688 37.8008 105.688 33.375Z" fill="black"/>
<path fill-rule="evenodd" clip-rule="evenodd" d="M120.758 79.4992C121.276 80.0159 121.687 80.6298 121.967 81.3057C122.247 81.9815 122.392 82.706 122.392 83.4375C122.392 84.169 122.247 84.8935 121.967 85.5693C121.687 86.2452 121.276 86.8591 120.758 87.3758L87.3827 120.751C86.8661 121.269 86.2521 121.68 85.5763 121.96C84.9004 122.241 84.1759 122.385 83.4445 122.385C82.7123 122.385 81.9878 122.241 81.3126 121.96C80.6368 121.68 80.0228 121.269 79.5062 120.751L62.8185 104.063C62.3013 103.546 61.8911 102.932 61.6112 102.256C61.3313 101.581 61.1872 100.856 61.1872 100.125C61.1872 99.3935 61.3313 98.6697 61.6112 97.9939C61.8911 97.318 62.3013 96.7041 62.8185 96.1867C63.863 95.1424 65.2796 94.5555 66.7567 94.5555C67.4881 94.5555 68.2124 94.6995 68.8881 94.9797C69.5639 95.2592 70.1779 95.6694 70.6952 96.1867L83.4445 108.947L112.881 79.4992C113.398 78.9812 114.012 78.5703 114.688 78.2901C115.363 78.0092 116.087 77.8653 116.819 77.8653C117.551 77.8653 118.275 78.0092 118.951 78.2901C119.627 78.5703 120.241 78.9812 120.758 79.4992Z" fill="black"/>
</svg>
