<svg width="256" height="256" viewBox="0 0 256 256" fill="none" xmlns="http://www.w3.org/2000/svg">
<g filter="url(#filter0_d_5489_22)">
<path d="M84 38H144.5V49.3125H84C81.0826 49.3125 78.2847 50.5043 76.2218 52.6259C74.1589 54.7474 73 57.6247 73 60.625V196.375C73 199.375 74.1589 202.253 76.2218 204.374C78.2847 206.495 81.0826 207.688 84 207.688H172C174.917 207.688 177.715 206.495 179.778 204.374C181.841 202.253 183 199.375 183 196.375V88.9062H194V196.375C194 202.376 191.682 208.13 187.556 212.373C183.43 216.617 177.835 219 172 219H84C78.1653 219 72.5694 216.617 68.4437 212.373C64.3178 208.13 62 202.376 62 196.375V60.625C62 54.6245 64.3178 48.8697 68.4437 44.6267C72.5694 40.3837 78.1653 38 84 38Z" fill="black"/>
<path d="M144.5 71.9375V38L194 88.9062H161C156.624 88.9062 152.427 87.1184 149.332 83.9362C146.239 80.754 144.5 76.4379 144.5 71.9375Z" fill="black"/>
<path fill-rule="evenodd" clip-rule="evenodd" d="M159.401 118.839C159.913 119.364 160.319 119.989 160.596 120.676C160.873 121.363 161.017 122.1 161.017 122.844C161.017 123.588 160.873 124.324 160.596 125.012C160.319 125.699 159.913 126.323 159.401 126.848L126.401 160.786C125.89 161.313 125.283 161.73 124.615 162.015C123.946 162.301 123.23 162.447 122.507 162.447C121.783 162.447 121.067 162.301 120.399 162.015C119.731 161.73 119.124 161.313 118.613 160.786L102.113 143.817C101.601 143.291 101.196 142.667 100.919 141.98C100.642 141.293 100.5 140.556 100.5 139.813C100.5 139.069 100.642 138.333 100.919 137.645C101.196 136.958 101.601 136.334 102.113 135.808C103.145 134.746 104.546 134.149 106.007 134.149C106.73 134.149 107.446 134.296 108.114 134.58C108.782 134.865 109.389 135.282 109.901 135.808L122.507 148.783L151.613 118.839C152.124 118.312 152.731 117.895 153.399 117.61C154.067 117.324 154.783 117.178 155.507 117.178C156.23 117.178 156.947 117.324 157.615 117.61C158.283 117.895 158.89 118.312 159.401 118.839Z" fill="black"/>
</g>
<defs>
<filter id="filter0_d_5489_22" x="-10" y="-6" width="276" height="276" filterUnits="userSpaceOnUse" color-interpolation-filters="sRGB">
<feFlood flood-opacity="0" result="BackgroundImageFix"/>
<feColorMatrix in="SourceAlpha" type="matrix" values="0 0 0 0 0 0 0 0 0 0 0 0 0 0 0 0 0 0 127 0" result="hardAlpha"/>
<feOffset dy="4"/>
<feGaussianBlur stdDeviation="5"/>
<feColorMatrix type="matrix" values="0 0 0 0 0 0 0 0 0 0 0 0 0 0 0 0 0 0 0.12 0"/>
<feBlend mode="normal" in2="BackgroundImageFix" result="effect1_dropShadow_5489_22"/>
<feBlend mode="normal" in="SourceGraphic" in2="effect1_dropShadow_5489_22" result="shape"/>
</filter>
</defs>
</svg>
